<svg width="310" height="199" viewBox="0 0 310 199" fill="none" xmlns="http://www.w3.org/2000/svg">
<path opacity="0.3" d="M30.25 278.75L30.25 -41.25M70.25 278.75L70.25 -41.25M110.25 278.75L110.25 -41.25M150.25 278.75L150.25 -41.25M190.25 278.75L190.25 -41.25M230.25 278.75L230.25 -41.25M270.25 278.75L270.25 -41.25M310.25 278.75V-41.25M350.25 278.75V-41.25M390.25 278.75V-41.25M430.25 278.75V-41.25M470.25 278.75V-41.25M510.25 278.75V-41.25M550.25 278.75V-41.25M590.25 278.75V-41.25M630.25 278.75V-41.25M670.25 278.75V-41.25M30 279H670M30 239H670M30 199H670M30 159H670M30 119H670M30 79H670M30 39H670M30 -1H670M30 -41H670" stroke="url(#paint0_radial_4203_1544)" stroke-width="0.5"/>
<defs>
<radialGradient id="paint0_radial_4203_1544" cx="0" cy="0" r="1" gradientUnits="userSpaceOnUse" gradientTransform="translate(350.125 239.5) rotate(-90) scale(184 367.856)">
<stop stop-color="#EBF0FF" stop-opacity="0.8"/>
<stop offset="1" stop-color="#08020E"/>
</radialGradient>
</defs>
</svg>
