<svg width="28" height="28" viewBox="0 0 28 28" fill="none" xmlns="http://www.w3.org/2000/svg">
<g id="check (1) 1" clip-path="url(#clip0_379_8998)">
<g id="Vector">
<g filter="url(#filter0_ii_379_8998)">
<path d="M14 0C6.28009 0 0 6.28009 0 14C0 21.7199 6.28009 28 14 28C21.7199 28 28 21.7199 28 14C28 6.28009 21.7199 0 14 0Z" fill="url(#paint0_linear_379_8998)"/>
</g>
<path d="M14 0.583008C21.3977 0.583008 27.417 6.60226 27.417 14C27.417 21.3977 21.3977 27.417 14 27.417C6.60226 27.417 0.583008 21.3977 0.583008 14C0.583008 6.60226 6.60226 0.583008 14 0.583008Z" stroke="url(#paint1_linear_379_8998)" stroke-opacity="0.4" stroke-width="1.16667"/>
</g>
<g id="Vector_2" filter="url(#filter1_d_379_8998)">
<path d="M21.0958 11.0332L13.5124 18.6164C13.2849 18.8439 12.9863 18.9584 12.6876 18.9584C12.389 18.9584 12.0903 18.8439 11.8628 18.6164L8.07123 14.8248C7.61493 14.3687 7.61493 13.6313 8.07123 13.1752C8.52731 12.7189 9.26453 12.7189 9.72083 13.1752L12.6876 16.142L19.4462 9.38361C19.9023 8.92731 20.6395 8.92731 21.0958 9.38361C21.5519 9.83969 21.5519 10.5769 21.0958 11.0332Z" fill="#ECE6FF"/>
</g>
</g>
<defs>
<filter id="filter0_ii_379_8998" x="-4.66667" y="-4.66667" width="37.3333" height="37.3333" filterUnits="userSpaceOnUse" color-interpolation-filters="sRGB">
<feFlood flood-opacity="0" result="BackgroundImageFix"/>
<feBlend mode="normal" in="SourceGraphic" in2="BackgroundImageFix" result="shape"/>
<feColorMatrix in="SourceAlpha" type="matrix" values="0 0 0 0 0 0 0 0 0 0 0 0 0 0 0 0 0 0 127 0" result="hardAlpha"/>
<feOffset dx="-4.66667" dy="-4.66667"/>
<feGaussianBlur stdDeviation="4.66667"/>
<feComposite in2="hardAlpha" operator="arithmetic" k2="-1" k3="1"/>
<feColorMatrix type="matrix" values="0 0 0 0 1 0 0 0 0 1 0 0 0 0 1 0 0 0 0.15 0"/>
<feBlend mode="normal" in2="shape" result="effect1_innerShadow_379_8998"/>
<feColorMatrix in="SourceAlpha" type="matrix" values="0 0 0 0 0 0 0 0 0 0 0 0 0 0 0 0 0 0 127 0" result="hardAlpha"/>
<feOffset dx="4.66667" dy="4.66667"/>
<feGaussianBlur stdDeviation="2.33333"/>
<feComposite in2="hardAlpha" operator="arithmetic" k2="-1" k3="1"/>
<feColorMatrix type="matrix" values="0 0 0 0 1 0 0 0 0 1 0 0 0 0 1 0 0 0 0.15 0"/>
<feBlend mode="normal" in2="effect1_innerShadow_379_8998" result="effect2_innerShadow_379_8998"/>
</filter>
<filter id="filter1_d_379_8998" x="4.229" y="7.87472" width="20.709" height="16.917" filterUnits="userSpaceOnUse" color-interpolation-filters="sRGB">
<feFlood flood-opacity="0" result="BackgroundImageFix"/>
<feColorMatrix in="SourceAlpha" type="matrix" values="0 0 0 0 0 0 0 0 0 0 0 0 0 0 0 0 0 0 127 0" result="hardAlpha"/>
<feOffset dy="2.33333"/>
<feGaussianBlur stdDeviation="1.75"/>
<feComposite in2="hardAlpha" operator="out"/>
<feColorMatrix type="matrix" values="0 0 0 0 0.792157 0 0 0 0 0.227451 0 0 0 0 0.65098 0 0 0 1 0"/>
<feBlend mode="normal" in2="BackgroundImageFix" result="effect1_dropShadow_379_8998"/>
<feBlend mode="normal" in="SourceGraphic" in2="effect1_dropShadow_379_8998" result="shape"/>
</filter>
<linearGradient id="paint0_linear_379_8998" x1="0" y1="0" x2="26.2" y2="28" gradientUnits="userSpaceOnUse">
<stop stop-color="#9E67FA"/>
<stop offset="0.5" stop-color="#FE6ABB"/>
<stop offset="1" stop-color="#FF9C65"/>
</linearGradient>
<linearGradient id="paint1_linear_379_8998" x1="1.4" y1="-1.18911e-07" x2="26.8" y2="26.6" gradientUnits="userSpaceOnUse">
<stop stop-color="white"/>
<stop offset="1" stop-color="white" stop-opacity="0"/>
</linearGradient>
<clipPath id="clip0_379_8998">
<rect width="28" height="28" fill="white"/>
</clipPath>
</defs>
</svg>
