<svg width="18" height="17" viewBox="0 0 18 17" fill="none" xmlns="http://www.w3.org/2000/svg">
<path fill-rule="evenodd" clip-rule="evenodd" d="M8.8101 0C3.94442 0 0 3.76477 0 8.40884C0 13.0529 3.94442 16.8177 8.8101 16.8177C13.6758 16.8177 17.6202 13.0529 17.6202 8.40884C17.6202 3.76477 13.6758 0 8.8101 0ZM12.135 6.83913C12.4431 6.4797 12.3876 5.94993 12.011 5.65585C11.6344 5.36177 11.0794 5.41474 10.7713 5.77417L7.42318 9.6799L6.34953 8.65515C6.00548 8.32677 5.44765 8.32677 5.1036 8.65515C4.75954 8.98354 4.75954 9.51596 5.1036 9.84434L6.86562 11.5261C7.04163 11.6941 7.28387 11.7832 7.53247 11.7714C7.78108 11.7595 8.01283 11.6479 8.17045 11.464L12.135 6.83913Z" fill="#10D683"/>
</svg>
