<svg width="24" height="24" viewBox="0 0 24 24" fill="none" xmlns="http://www.w3.org/2000/svg">
<mask id="path-1-inside-1_7_356" fill="white">
<path d="M0 11.9957C0 5.37068 5.37068 0 11.9957 0C18.6208 0 23.9915 5.37068 23.9915 11.9957C23.9915 18.6208 18.6208 23.9915 11.9957 23.9915C5.37068 23.9915 0 18.6208 0 11.9957Z"/>
</mask>
<path d="M11.9957 23.9915V21.2642C6.87691 21.2642 2.72727 17.1146 2.72727 11.9957H0H-2.72727C-2.72727 20.127 3.86445 26.7187 11.9957 26.7187V23.9915ZM23.9915 11.9957H21.2642C21.2642 17.1146 17.1146 21.2642 11.9957 21.2642V23.9915V26.7187C20.127 26.7187 26.7187 20.127 26.7187 11.9957H23.9915ZM11.9957 0V2.72727C17.1146 2.72727 21.2642 6.87691 21.2642 11.9957H23.9915H26.7187C26.7187 3.86445 20.127 -2.72727 11.9957 -2.72727V0ZM11.9957 0V-2.72727C3.86445 -2.72727 -2.72727 3.86445 -2.72727 11.9957H0H2.72727C2.72727 6.87691 6.87691 2.72727 11.9957 2.72727V0Z" fill="#7B79FF" mask="url(#path-1-inside-1_7_356)"/>
<path d="M5.99438 11.9958C5.99438 8.68521 8.67813 6.00146 11.9887 6.00146C15.2993 6.00146 17.983 8.68521 17.983 11.9958C17.983 15.3064 15.2993 17.9901 11.9887 17.9901C8.67813 17.9901 5.99438 15.3064 5.99438 11.9958Z" fill="#7B79FF"/>
</svg>
