<svg version="1.2" xmlns="http://www.w3.org/2000/svg" viewBox="0 0 48 46" width="48" height="46">
	<title>feature section icon</title>
	<style>
		.s0 { fill: #ece6ff } 
	</style>
	<g>
		<path class="s0" d="m48 23c0-0.5-0.3-1-0.7-1.2l-5.4-3 5.4-3c0.4-0.3 0.7-0.7 0.7-1.2 0-0.5-0.3-1-0.7-1.3l-22.6-12.6c-0.4-0.3-1-0.3-1.4 0l-22.6 12.6c-0.4 0.3-0.7 0.8-0.7 1.3 0 0.5 0.3 0.9 0.7 1.2l5.4 3-5.4 3c-0.4 0.2-0.7 0.7-0.7 1.2 0 0.5 0.3 1 0.7 1.2l5.4 3-5.4 3c-0.4 0.3-0.7 0.7-0.7 1.2 0 0.5 0.3 1 0.7 1.3l22.6 12.6q0.3 0.2 0.7 0.2 0.4 0 0.7-0.2l22.6-12.6c0.4-0.3 0.7-0.8 0.7-1.3 0-0.5-0.3-0.9-0.7-1.2l-5.4-3 5.4-3c0.4-0.2 0.7-0.7 0.7-1.2zm-24 2.6l-19.7-11 19.7-11.1 19.7 11.1zm-6.6-7.3c0.3 0.3 0.6 0.4 1 0.4 0.4 0 0.7-0.1 1-0.4 0.5-0.5 0.5-1.4 0-2l-1.8-1.8 1.8-1.8c0.5-0.5 0.5-1.4 0-2-0.6-0.5-1.5-0.5-2 0l-2.8 2.8c-0.6 0.6-0.6 1.5 0 2zm11.2 0c0.3 0.3 0.7 0.4 1 0.4 0.4 0 0.7-0.1 1-0.4l2.8-2.8c0.6-0.5 0.6-1.4 0-2l-2.8-2.8c-0.5-0.6-1.4-0.6-2 0-0.5 0.5-0.5 1.4 0 2l1.9 1.8-1.9 1.8c-0.5 0.6-0.5 1.5 0 2zm-5.6 0.4q0.1 0 0.3 0c0.6 0 1.2-0.4 1.4-1l1.4-5.7c0.2-0.7-0.3-1.5-1.1-1.7-0.7-0.2-1.5 0.3-1.7 1.1l-1.4 5.6c-0.2 0.7 0.3 1.5 1.1 1.7zm20.7 12.7l-19.7 11-19.7-11 4.7-2.6 14.3 8q0.3 0.2 0.7 0.2 0.4 0 0.7-0.2l14.3-8zm-39.4-8.4l4.7-2.6 14.3 8q0.4 0.2 0.7 0.2 0.4 0 0.7-0.2l14.4-8 4.6 2.6-19.7 11z"/>
	</g>
</svg>