<svg version="1.2" xmlns="http://www.w3.org/2000/svg" viewBox="0 0 35 48" width="35" height="48">
	<title>touch 1</title>
	<style>
		.s0 { fill: none;stroke: #ece6ff;stroke-linecap: round;stroke-linejoin: round;stroke-width: 2.8 } 
	</style>
	<g>
		<path class="s0" d="m3.2 22c-1-1.9-1.6-4.2-1.6-6.5 0-7.8 6.3-14.1 14-14.1 7.8 0 14.1 6.3 14.1 14.1 0 2.3-0.6 4.6-1.7 6.5m-9.6 1.4c3.3-1.1 5.7-4.3 5.7-7.9 0-4.7-3.8-8.5-8.5-8.5-4.6 0-8.4 3.8-8.4 8.5 0 3.6 2.3 6.8 5.6 7.9m5.6 4.4v-12.1c0-1.6-1.2-2.9-2.8-2.9-1.5 0-2.8 1.3-2.8 2.9v20.6l-4.5-4.1c-1.9-1.7-4.9-0.4-4.9 2.1 0 0.7 0.3 1.3 0.7 1.8l6.1 7.7c1.5 1.8 3.6 2.8 5.9 2.8h10.8c3.6 0 6.5-2.9 6.5-6.6v-4.7c0-4.1-3.3-7.5-7.5-7.5z"/>
	</g>
</svg>