<svg width="42" height="42" viewBox="0 0 42 42" fill="none" xmlns="http://www.w3.org/2000/svg">
<circle cx="20.6101" cy="20.5661" r="20.0085" fill="url(#paint0_linear_1_2643)"/>
<g clip-path="url(#clip0_1_2643)">
<path d="M25.9932 13.1826H25.6219V12.8113C25.6219 12.1956 25.1228 11.6973 24.5079 11.6973C23.893 11.6973 23.3939 12.1956 23.3939 12.8113V13.1826H18.9379V12.8113C18.9379 12.1956 18.4388 11.6973 17.8239 11.6973C17.209 11.6973 16.7099 12.1956 16.7099 12.8113V13.1826H16.3386C14.0868 13.1826 12.2539 15.0148 12.2539 17.2673V25.4366C12.2539 27.6891 14.0868 29.5213 16.3386 29.5213H25.9932C28.245 29.5213 30.0779 27.6891 30.0779 25.4366V17.2673C30.0779 15.0148 28.245 13.1826 25.9932 13.1826ZM25.9932 27.2933H16.3386C15.3144 27.2933 14.4819 26.46 14.4819 25.4366V18.3813H27.8499V25.4366C27.8499 26.46 27.0174 27.2933 25.9932 27.2933ZM19.6806 20.9806V22.4659C19.6806 23.0809 19.1815 23.5799 18.5666 23.5799H17.0812C16.4663 23.5799 15.9672 23.0809 15.9672 22.4659V20.9806C15.9672 20.3657 16.4663 19.8666 17.0812 19.8666H18.5666C19.1815 19.8666 19.6806 20.3657 19.6806 20.9806Z" fill="#0D0D0D"/>
</g>
<defs>
<linearGradient id="paint0_linear_1_2643" x1="20.6101" y1="0.557617" x2="20.6101" y2="40.5746" gradientUnits="userSpaceOnUse">
<stop stop-color="#DEB2FF"/>
<stop offset="1" stop-color="#D49EFC"/>
</linearGradient>
<clipPath id="clip0_1_2643">
<rect width="17.824" height="17.824" fill="white" transform="translate(12.2539 11.6973)"/>
</clipPath>
</defs>
</svg>
